<svg width="189" height="156" viewBox="0 0 189 156" fill="none" xmlns="http://www.w3.org/2000/svg">
<path fill-rule="evenodd" clip-rule="evenodd" d="M94.5 0C146.689 0 189 25.0724 189 56C189 86.9276 146.689 112 94.5 112C42.311 112 0 86.9276 0 56C0 25.0724 42.311 0 94.5 0ZM94.5914 2.63799C43.5565 2.63799 2.18811 26.4258 2.18811 55.7763C2.18811 85.1269 43.5565 108.915 94.5914 108.915C145.626 108.915 186.995 85.1269 186.995 55.7763C186.995 26.4258 145.626 2.63799 94.5914 2.63799ZM118.849 42.1563L42.0768 38.119L63.8379 19.4925L155.03 40.3556L160.515 80.9061L160.406 45.8953L166.548 41.2674L66.0603 14.0846L29.2624 42.4143L118.849 42.162V42.1563ZM51.4348 87.4437H47.8299C48.0755 87.048 48.2298 86.6007 48.2926 86.1018C48.3155 85.9183 48.3326 85.7176 48.3383 85.4996L47.35 73.2215L43.6136 76.1749L40.0372 73.2846L39.0489 85.4996C39.0317 85.729 39.066 86.0616 39.1574 86.4803C39.2317 86.8072 39.3631 87.1283 39.5573 87.4437H35.9638C36.238 87.0538 36.4437 86.7039 36.598 86.3828C36.7237 86.1018 36.7979 85.7978 36.8265 85.4767C36.9122 84.519 37.055 82.9477 37.255 80.7627C37.4092 79.0652 37.5521 77.3677 37.6835 75.6702C37.8091 74.053 37.8777 73.1183 37.8834 72.8659C37.9005 72.5219 37.8834 72.2122 37.8263 71.9369C37.752 71.5412 37.6149 71.2143 37.4207 70.9391H41.2656C41.3398 71.1742 41.4141 71.3577 41.4884 71.4839C41.5798 71.6387 41.6997 71.7821 41.854 71.9254L43.6251 73.5255L45.5389 71.9426C45.836 71.6961 46.0588 71.3577 46.1959 70.9448H50.0865C49.8637 71.2373 49.7323 71.5355 49.6866 71.8394C49.6409 72.1434 49.6181 72.4874 49.6181 72.8717C49.6181 73.2559 49.6752 74.1849 49.778 75.6932C49.8809 77.1211 50.0066 78.7957 50.1665 80.7283C50.3608 83.0509 50.4979 84.6337 50.5836 85.4767C50.5836 85.7577 50.6636 86.0559 50.8121 86.3771C50.9949 86.7555 51.2063 87.1111 51.4463 87.4437H51.4348ZM65.8146 79.6158C65.8146 81.8466 65.2776 83.6645 64.1978 85.0695C62.981 86.6523 61.2613 87.4437 59.0218 87.4437C56.7823 87.4437 55.2512 86.6753 54.0857 85.1498C53.0573 83.7907 52.5432 82.053 52.5432 79.9369C52.5432 77.5627 53.0231 75.6989 53.9886 74.3226C55.1198 72.7168 56.868 71.9082 59.2218 71.891C61.2785 71.8853 62.8953 72.5563 64.055 73.9039C65.2205 75.2459 65.8032 77.1556 65.8146 79.6158ZM63.7179 79.4495C63.7179 77.7806 63.318 76.4158 62.5239 75.3663C61.6898 74.2652 60.5415 73.7147 59.0789 73.7147C57.6164 73.7147 56.508 74.3283 55.7082 75.5498C54.9884 76.6566 54.6227 78.0731 54.617 79.8107C54.617 81.319 54.9598 82.6036 55.6397 83.6645C56.4452 84.9204 57.5935 85.5512 59.0789 85.5512C60.5643 85.5512 61.7184 84.9319 62.5696 83.6932C63.3295 82.5864 63.7122 81.1756 63.7179 79.4609V79.4495ZM69.7395 82.3111V85.6029C69.7395 86.314 69.8652 86.9276 70.1223 87.438H67.3058C67.58 87.0308 67.7171 86.4172 67.7171 85.6029V73.6631C67.7171 73.2502 67.6828 72.9118 67.6143 72.648C67.5457 72.3842 67.4429 72.1491 67.3058 71.9484H74.4528C74.7613 71.9484 75.0298 71.9656 75.2584 72C75.4926 72.0344 75.6868 72.1032 75.8411 72.2007C75.9896 72.2925 76.1096 72.4244 76.1839 72.5792C76.2639 72.734 76.3038 72.9348 76.3038 73.1756C76.3038 73.514 76.2239 73.8351 76.0696 74.1333C75.7497 74.6437 75.4697 75.0796 75.2241 75.4466C74.9784 75.8194 74.767 76.1176 74.5842 76.3584C74.5042 76.4731 74.39 76.628 74.2471 76.8229C74.1043 77.0179 73.9444 77.2358 73.7672 77.471C73.5901 77.7061 73.413 77.947 73.2188 78.1993C73.0303 78.4516 72.8589 78.681 72.6932 78.8932C72.5275 79.1054 72.3847 79.2946 72.2647 79.4552C72.1447 79.61 72.059 79.719 72.019 79.7763L69.7338 82.3168L69.7395 82.3111ZM69.7395 79.4036C69.8024 79.3176 69.9281 79.1627 70.1166 78.9391C70.3051 78.7154 70.5336 78.4459 70.785 78.1305C71.0364 77.8208 71.3049 77.4824 71.5906 77.1097C71.8762 76.7427 72.1447 76.3814 72.4018 76.0201C72.6532 75.6588 72.876 75.3204 73.0645 74.9993C73.2531 74.6781 73.3788 74.3971 73.4473 74.1735C73.493 74.0186 73.4359 73.9097 73.2873 73.8409C73.1331 73.7778 72.9217 73.7434 72.6589 73.7434H69.7395V79.4036ZM90.7237 79.6158C90.7237 81.8466 90.1866 83.6645 89.1069 85.0695C87.89 86.6523 86.1646 87.4437 83.9308 87.4437C81.697 87.4437 80.1602 86.6753 78.9947 85.1498C77.9664 83.7907 77.4522 82.053 77.4522 79.9369C77.4522 77.5627 77.9321 75.6989 78.8976 74.3226C80.0288 72.7168 81.777 71.9082 84.1308 71.891C86.1875 71.8853 87.8043 72.5563 88.964 73.9039C90.1295 75.2459 90.7122 77.1556 90.7179 79.6158H90.7237ZM88.627 79.4495C88.627 77.7806 88.227 76.4158 87.4329 75.3663C86.5988 74.2652 85.4505 73.7147 83.9879 73.7147C82.5254 73.7147 81.4171 74.3283 80.6172 75.5498C79.8974 76.6566 79.5317 78.0731 79.526 79.8107C79.526 81.319 79.8688 82.6036 80.5487 83.6645C81.3542 84.9204 82.5025 85.5512 83.9879 85.5512C85.4733 85.5512 86.6274 84.9319 87.4786 83.6932C88.2385 82.5864 88.6212 81.1756 88.627 79.4609V79.4495ZM99.956 82.5348C99.996 83.2573 99.8989 83.9226 99.676 84.5305C99.4532 85.1441 99.1105 85.6717 98.6648 86.1247C98.2078 86.5778 97.6593 86.9448 97.008 87.2201C96.351 87.4953 95.6198 87.6502 94.8142 87.6788C94.5914 87.6903 94.34 87.6846 94.0715 87.6674C93.803 87.6444 93.5231 87.6158 93.2317 87.5756C92.9403 87.5412 92.649 87.4896 92.369 87.4323C92.0891 87.3749 91.8434 87.3061 91.6377 87.2201L91.5235 84.8C91.8834 85.0237 92.3347 85.2473 92.8775 85.471C93.4259 85.6946 94.0258 85.7921 94.6828 85.7634C95.5969 85.729 96.3396 85.4136 96.8995 84.8229C97.4594 84.2323 97.7336 83.4982 97.7165 82.6093C97.6936 82.1104 97.5793 81.6401 97.3794 81.21C97.1794 80.7799 96.9052 80.39 96.5567 80.0401C96.2082 79.6846 95.8026 79.4093 95.3341 79.2086C94.8656 79.0021 94.3572 78.8875 93.8201 78.8473L93.5288 77.0867C94.3857 77.0466 95.0827 76.8573 95.6255 76.5133C96.1625 76.1692 96.4367 75.7219 96.4367 75.1771C96.4196 74.7928 96.2596 74.4774 95.9683 74.2423C95.6712 74.0072 95.2827 73.8867 94.8028 73.881C94.4372 73.8925 94.0829 73.9613 93.7345 74.0817C93.386 74.1964 92.9403 74.4373 92.3919 74.7814L92.2719 72.0516C92.3519 72.0516 92.4776 72.0401 92.6432 72.0229C92.8089 72.0115 92.986 71.9943 93.1803 71.9771C93.3688 71.9541 93.5688 71.9312 93.7744 71.914C93.9801 71.8968 94.1515 71.8796 94.3058 71.8738C94.9513 71.8509 95.5398 71.914 96.0597 72.0745C96.5853 72.2294 97.0423 72.4473 97.4308 72.734C97.8136 73.0151 98.1164 73.3649 98.3278 73.772C98.5391 74.1792 98.6591 74.6208 98.682 75.091C98.7048 75.6932 98.5506 76.238 98.2192 76.7312C97.8821 77.2244 97.3223 77.6143 96.5339 77.8896C97.0023 78.1018 97.4365 78.3656 97.8421 78.6925C98.2478 79.0193 98.6077 79.3864 98.9162 79.7993C99.2304 80.2122 99.4818 80.648 99.6646 81.1183C99.8531 81.5885 99.956 82.0588 99.9731 82.529L99.956 82.5348ZM114.262 79.6158C114.262 81.8466 113.725 83.6645 112.645 85.0695C111.428 86.6523 109.708 87.4437 107.469 87.4437C105.229 87.4437 103.692 86.6753 102.527 85.1498C101.499 83.7907 100.984 82.053 100.984 79.9369C100.984 77.5627 101.464 75.6989 102.43 74.3226C103.561 72.7168 105.309 71.9082 107.663 71.891C109.72 71.8853 111.336 72.5563 112.502 73.9039C113.667 75.2459 114.25 77.1556 114.256 79.6158H114.262ZM112.165 79.4495C112.165 77.7806 111.765 76.4158 110.971 75.3663C110.137 74.2652 108.988 73.7147 107.526 73.7147C106.063 73.7147 104.955 74.3283 104.155 75.5498C103.435 76.6566 103.07 78.0731 103.064 79.8107C103.064 81.319 103.407 82.6036 104.087 83.6645C104.892 84.9204 106.04 85.5512 107.526 85.5512C109.011 85.5512 110.165 84.9319 111.017 83.6932C111.776 82.5864 112.159 81.1756 112.165 79.4609V79.4495ZM125.722 78.9907C125.722 80.3039 125.179 81.6344 124.094 82.9878C123.111 84.2208 121.871 85.253 120.375 86.0846C118.763 86.9735 117.198 87.4265 115.684 87.438C115.878 87.1685 116.004 86.8588 116.067 86.4975C116.107 86.2681 116.124 85.9699 116.124 85.6086V73.7262C116.124 73.3477 116.107 73.0609 116.067 72.8545C115.998 72.4874 115.873 72.172 115.684 71.914H122.026C122.825 71.914 123.448 72.0344 123.882 72.281C124.454 72.6021 124.739 73.1183 124.751 73.8351C124.756 74.7183 124.265 75.3548 123.277 75.7391C124.002 75.9226 124.596 76.3355 125.059 76.9663C125.499 77.5799 125.716 78.2509 125.716 78.9907H125.722ZM122.414 74.2308C122.414 74.076 122.351 73.9613 122.226 73.881C122.083 73.7892 121.906 73.7491 121.689 73.7491H118.232V74.7928H121.689C121.906 74.7928 122.077 74.7412 122.226 74.6437C122.351 74.5348 122.414 74.3971 122.414 74.2366V74.2308ZM123.391 79.243C123.391 78.5147 123.134 77.9125 122.625 77.4308C122.117 76.9491 121.483 76.7082 120.723 76.7082H118.232V84.6222C118.981 84.4674 119.769 84.0889 120.603 83.481C121.369 82.9247 121.991 82.3168 122.483 81.6573C123.094 80.843 123.397 80.0344 123.397 79.2373L123.391 79.243ZM139.679 79.6158C139.679 81.8466 139.142 83.6645 138.062 85.0695C136.845 86.6523 135.126 87.4437 132.886 87.4437C130.647 87.4437 129.11 86.6753 127.95 85.1498C126.922 83.7907 126.408 82.053 126.408 79.9369C126.408 77.5627 126.887 75.6989 127.853 74.3226C128.984 72.7168 130.732 71.9082 133.086 71.891C135.143 71.8853 136.76 72.5563 137.919 73.9039C139.085 75.2459 139.668 77.1556 139.673 79.6158H139.679ZM137.582 79.4495C137.582 77.7806 137.182 76.4158 136.388 75.3663C135.554 74.2652 134.406 73.7147 132.943 73.7147C131.481 73.7147 130.372 74.3283 129.573 75.5498C128.853 76.6566 128.487 78.0731 128.481 79.8107C128.481 81.319 128.824 82.6036 129.504 83.6645C130.31 84.9204 131.458 85.5512 132.943 85.5512C134.429 85.5512 135.583 84.9319 136.434 83.6932C137.194 82.5864 137.577 81.1756 137.582 79.4609V79.4495ZM143.627 85.6373C143.627 86.0387 143.638 86.3369 143.672 86.5262C143.735 86.8932 143.861 87.2029 144.055 87.4609H141.102C141.284 87.1455 141.404 86.8244 141.467 86.4803C141.501 86.3082 141.513 86.0272 141.513 85.6373V73.7262C141.513 73.3706 141.49 73.0609 141.444 72.8029C141.393 72.5219 141.279 72.2294 141.096 71.914H144.055C143.867 72.172 143.741 72.4874 143.672 72.8545C143.638 73.0208 143.627 73.3133 143.627 73.7262V78.4745C144.05 77.9125 144.364 77.4939 144.575 77.2129C145.278 76.2667 145.729 75.6645 145.935 75.4007C146.683 74.4029 147.152 73.7663 147.352 73.4853C147.574 73.1756 147.677 72.8373 147.672 72.4817C147.666 72.2867 147.632 72.0975 147.557 71.9197H150.945C150.757 72.1778 150.631 72.4932 150.562 72.8602C150.522 73.0667 150.505 73.3534 150.505 73.7319V85.6143C150.505 85.9814 150.522 86.2738 150.562 86.5032C150.625 86.8645 150.751 87.1742 150.945 87.4437H147.992C148.169 87.1283 148.294 86.8072 148.357 86.4631C148.391 86.2853 148.403 86.0043 148.403 85.6086V75.4409L145.381 79.4609C144.889 80.109 144.415 80.757 143.952 81.4108C143.85 81.5541 143.775 81.6975 143.718 81.8523C143.667 82.0989 143.644 82.2824 143.632 82.4086L143.621 85.643L143.627 85.6373ZM146.866 71.2717C146.809 71.2889 146.706 71.3061 146.563 71.3176C146.42 71.3348 146.272 71.3405 146.129 71.3405C145.981 71.3405 145.855 71.3405 145.746 71.3405C145.638 71.3348 145.586 71.3233 145.598 71.3118C144.832 71.1513 144.072 70.7326 143.33 70.0559L144.307 68.7828C144.558 69.1785 144.861 69.5054 145.221 69.7749C145.586 70.0387 145.929 70.1706 146.26 70.1706C146.592 70.1706 146.923 70.0387 147.283 69.7749C147.649 69.5111 147.952 69.1785 148.197 68.7828L149.174 70.0559C148.431 70.7326 147.666 71.1398 146.877 71.2774L146.866 71.2717ZM46.4016 54.4631C46.4016 56.086 45.876 57.6803 44.8248 59.2287C43.8707 60.6394 42.6253 61.8265 41.0884 62.8014C39.5573 63.7706 38.0605 64.3211 36.598 64.4473C36.7808 64.1778 36.9065 63.8566 36.9693 63.4839C37.0093 63.2774 37.0264 62.9964 37.0264 62.6409V51.0738C37.0264 50.7183 37.0093 50.4315 36.9693 50.2136C36.9122 49.8695 36.7865 49.5656 36.598 49.3018H41.9968C43.3165 49.3018 44.3792 49.7606 45.1904 50.6724C46.0017 51.5842 46.4016 52.8459 46.4016 54.4573V54.4631ZM44.3278 54.4459C44.3278 53.4021 44.0707 52.5993 43.5565 52.0373C43.088 51.5269 42.4539 51.2746 41.654 51.2746H39.0603V61.4366C40.4543 60.9892 41.6769 60.0659 42.7395 58.6552C43.7964 57.2502 44.3278 55.8452 44.3278 54.4401V54.4459ZM60.5529 56.8889C60.5529 59.0394 60.033 60.7943 58.9932 62.1477C57.822 63.6789 56.1538 64.4416 53.9943 64.4416C51.8347 64.4416 50.3493 63.7018 49.2239 62.2222C48.2298 60.909 47.7385 59.2344 47.7385 57.1871C47.7385 54.8989 48.2012 53.0925 49.1325 51.7735C50.2237 50.2194 51.909 49.4337 54.1828 49.428C56.171 49.428 57.7249 50.0702 58.8504 51.3663C59.9759 52.6681 60.5358 54.5032 60.5472 56.8889H60.5529ZM58.5305 56.7226C58.5305 55.1111 58.1477 53.7978 57.3764 52.7771C56.5709 51.7161 55.4625 51.1828 54.0457 51.1828C52.6289 51.1828 51.5662 51.7735 50.7893 52.9548C50.098 54.0215 49.7438 55.3978 49.738 57.0724C49.738 58.529 50.0694 59.7677 50.7264 60.7885C51.5034 61.9986 52.6117 62.6064 54.04 62.6064C55.4683 62.6064 56.5937 62.01 57.4164 60.8172C58.1477 59.7448 58.519 58.3857 58.5248 56.7283L58.5305 56.7226ZM75.0641 64.4416H71.7905C72.0133 64.086 72.1562 63.6731 72.2076 63.2201C72.2304 63.0538 72.2476 62.8702 72.2533 62.6753L71.3563 51.5211L67.9628 54.2108L64.712 51.5842L63.8151 62.6753C63.7979 62.8875 63.8322 63.1857 63.9122 63.5642C63.9807 63.8624 64.1007 64.1491 64.2778 64.4416H61.0099C61.2556 64.086 61.4499 63.7706 61.587 63.4781C61.7012 63.2201 61.7698 62.9505 61.7926 62.6523C61.8726 61.7806 61.9983 60.3527 62.1811 58.3742C62.3182 56.8315 62.4496 55.2889 62.5696 53.7462C62.6839 52.2781 62.7467 51.4294 62.7524 51.2C62.7639 50.8903 62.7467 50.6036 62.6953 50.357C62.6267 49.9957 62.5068 49.6918 62.324 49.4452H65.8146C65.8832 49.6573 65.946 49.8237 66.0146 49.9384C66.1003 50.076 66.2146 50.2079 66.346 50.334L67.9513 51.7907L69.6881 50.3513C69.9623 50.1219 70.1623 49.8237 70.288 49.4394H73.8187C73.6187 49.7032 73.4987 49.9728 73.453 50.248C73.413 50.529 73.3902 50.8387 73.3902 51.1885C73.3902 51.5383 73.4416 52.3814 73.5387 53.752C73.6301 55.0423 73.7444 56.5677 73.8929 58.3283C74.07 60.433 74.1957 61.8781 74.2757 62.6409C74.2757 62.8932 74.3443 63.1685 74.4871 63.4552C74.6528 63.805 74.8413 64.1262 75.0584 64.4244L75.0641 64.4416ZM86.5817 49.4853C86.5817 49.6287 86.576 49.7319 86.5588 49.8007C86.5303 49.8925 86.496 49.9613 86.4446 50.0072L85.9932 50.4258C85.759 50.6437 85.5819 50.81 85.4562 50.919V50.2251C85.4562 49.9613 85.5019 49.7147 85.599 49.4853H84.4907C84.565 49.6229 84.6107 49.7606 84.6221 49.9097C84.6335 50.0072 84.6392 50.1104 84.6392 50.2251V55.0824C84.6392 55.2029 84.6335 55.3118 84.6164 55.4093C84.5935 55.547 84.5535 55.6903 84.485 55.8337H85.5933C85.4962 55.5871 85.4505 55.3405 85.4505 55.0824V52.152L86.7588 54.876C86.8102 54.9792 86.8445 55.0939 86.8673 55.2201C86.8959 55.3749 86.913 55.5183 86.913 55.6502C86.913 55.6674 86.913 55.6903 86.913 55.7305C86.913 55.7534 86.9073 55.7878 86.9073 55.8394H88.3242C88.1985 55.6846 88.0785 55.524 87.9585 55.3577C87.8443 55.1857 87.7414 55.0194 87.6557 54.8473L86.4903 52.4043C86.216 51.8308 86.0618 51.5039 86.0275 51.4351L87.3701 50.2767C87.5358 50.1333 87.6672 50.0186 87.7586 49.9326C87.97 49.7606 88.1642 49.6115 88.3413 49.491H86.576L86.5817 49.4853ZM97.1394 49.4853C97.208 49.5885 97.2594 49.7147 97.288 49.8753C97.2994 49.9384 97.3051 50.0588 97.3051 50.2308V52.3756C97.3051 52.8745 97.2137 53.3161 97.0423 53.6946C96.5396 53.3104 96.1625 52.8745 95.9111 52.3928C95.6083 51.8079 95.4541 51.0738 95.4541 50.1849C95.4541 49.8925 95.4827 49.6631 95.5455 49.4968H94.6314C94.6771 49.6 94.7057 49.7147 94.7228 49.8523C94.7285 49.9039 94.7342 50.0301 94.74 50.2308C94.7742 51.2975 94.9399 52.1176 95.2484 52.6968C95.5626 53.2875 96.0254 53.8208 96.631 54.3082C96.2768 54.6867 95.8769 54.8817 95.4255 54.876C95.3455 54.876 95.2656 54.876 95.1799 54.8588C95.0999 54.8358 95.0256 54.8072 94.9513 54.7785V55.8452C95.4769 55.8394 95.974 55.7133 96.4367 55.4724C96.9338 55.2086 97.3337 54.8473 97.6365 54.3828C97.9621 53.8781 98.1278 53.3047 98.1278 52.6566V50.2366C98.1278 50.1047 98.1392 49.9785 98.1564 49.8581C98.1735 49.7376 98.2192 49.6172 98.2878 49.4968H97.1394V49.4853ZM107.206 55.4495C107.183 55.6043 107.132 55.7305 107.063 55.8337H108.211C108.149 55.7075 108.103 55.5756 108.074 55.4323C108.057 55.3462 108.051 55.2315 108.051 55.0824V50.2308C108.051 50.1276 108.063 49.9957 108.08 49.8351C108.109 49.7032 108.154 49.5885 108.217 49.4853H104.355C104.429 49.5885 104.475 49.7204 104.504 49.8753C104.521 49.9556 104.526 50.076 104.526 50.2308V55.0824C104.526 55.2315 104.521 55.352 104.504 55.4495C104.481 55.5928 104.429 55.7247 104.355 55.8337H105.503C105.435 55.7018 105.383 55.5699 105.361 55.4323C105.349 55.3634 105.343 55.243 105.343 55.0824V50.3054H106.949C107.057 50.3054 107.154 50.3111 107.24 50.3283V55.0824C107.24 55.2201 107.229 55.3405 107.212 55.4495H107.206ZM118.392 55.4323C118.392 55.3979 118.381 55.352 118.381 55.2946C118.381 55.2373 118.375 55.1685 118.375 55.0882V50.2308C118.375 50.0989 118.386 49.9728 118.404 49.8523C118.421 49.7319 118.466 49.6115 118.535 49.4853H117.381C117.455 49.5943 117.507 49.7204 117.529 49.8753C117.547 49.9613 117.552 50.076 117.552 50.2308V53.2702C117.432 53.2129 117.295 53.1269 117.152 53.0237C117.01 52.9147 116.867 52.8057 116.73 52.6853C116.592 52.5706 116.461 52.4502 116.347 52.3355C116.227 52.2208 116.135 52.1233 116.067 52.043C115.964 51.9168 115.867 51.7792 115.77 51.6301C115.673 51.481 115.593 51.3262 115.524 51.1656C115.456 51.005 115.404 50.8444 115.364 50.6839C115.324 50.5176 115.307 50.357 115.313 50.2079C115.416 50.0072 115.53 49.7892 115.65 49.5426H114.461C114.479 49.5885 114.49 49.6344 114.496 49.686C114.507 49.7262 114.507 49.772 114.501 49.8351C114.501 49.8982 114.484 49.9785 114.467 50.0875C114.45 50.2824 114.456 50.4889 114.484 50.7183C114.519 50.9477 114.57 51.1771 114.644 51.4179C114.724 51.59 114.821 51.7677 114.941 51.9398C115.056 52.1118 115.181 52.2839 115.318 52.4444C115.456 52.605 115.593 52.7599 115.736 52.909C115.884 53.0523 116.021 53.1842 116.147 53.2989C116.381 53.5054 116.615 53.6832 116.85 53.8265C117.084 53.9756 117.318 54.0961 117.552 54.1878V55.0824C117.552 55.2373 117.547 55.3577 117.529 55.4495C117.501 55.5986 117.449 55.7247 117.381 55.8337H118.535C118.466 55.7018 118.421 55.5699 118.392 55.4323ZM125.779 53.7749C125.779 53.7233 125.791 53.6487 125.813 53.5455C125.836 53.4882 125.865 53.4251 125.905 53.362C126.088 53.0982 126.27 52.8287 126.465 52.5649L127.642 50.919V55.071C127.642 55.2315 127.636 55.352 127.624 55.4208C127.602 55.5584 127.55 55.6903 127.482 55.8222H128.636C128.561 55.7133 128.51 55.5814 128.487 55.438C128.47 55.3405 128.464 55.2201 128.464 55.071V50.2136C128.464 50.0588 128.47 49.9384 128.487 49.8581C128.516 49.7032 128.567 49.5771 128.636 49.4681H127.316C127.344 49.5427 127.362 49.6172 127.362 49.6975C127.362 49.8466 127.322 49.9842 127.236 50.1104C127.156 50.2251 126.973 50.4832 126.682 50.8903C126.602 50.9993 126.425 51.2459 126.156 51.6301C126.076 51.7448 125.95 51.9168 125.785 52.152V50.2079C125.785 50.0416 125.785 49.9211 125.802 49.8523C125.831 49.6975 125.876 49.5713 125.95 49.4624H124.802C124.871 49.5885 124.916 49.709 124.934 49.8237C124.951 49.9326 124.956 50.0588 124.956 50.2021V55.0595C124.956 55.2143 124.951 55.329 124.939 55.4036C124.916 55.5412 124.865 55.6731 124.796 55.805H125.945C125.87 55.7018 125.819 55.5756 125.796 55.4265C125.785 55.3462 125.779 55.2258 125.779 55.0652V53.7577V53.7749ZM136.754 53.1728L136.851 53.4136C136.851 53.4136 136.88 53.4882 136.908 53.5685C136.937 53.6487 136.971 53.7462 137.011 53.8609C137.051 53.9756 137.097 54.0903 137.142 54.2222C137.188 54.3484 137.234 54.4688 137.28 54.5835C137.325 54.6982 137.365 54.8014 137.399 54.8875C137.434 54.9735 137.457 55.0308 137.468 55.0595C137.491 55.1168 137.508 55.1857 137.525 55.2602C137.537 55.3348 137.542 55.4265 137.542 55.524C137.542 55.6559 137.525 55.7591 137.491 55.8452H138.816C138.714 55.7362 138.622 55.61 138.542 55.4781C138.456 55.3462 138.382 55.1971 138.319 55.0366L137.359 52.628C137.599 52.3814 137.799 52.1348 137.959 51.8882C138.125 51.6416 138.251 51.395 138.348 51.1541C138.445 50.9075 138.508 50.6667 138.542 50.4315C138.571 50.1964 138.576 49.9556 138.554 49.7262C138.554 49.6745 138.554 49.6344 138.582 49.5943C138.605 49.5541 138.628 49.5254 138.651 49.491H137.405C137.445 49.5656 137.479 49.6172 137.508 49.6573C137.537 49.6918 137.559 49.7204 137.577 49.7434C137.594 49.7663 137.611 49.7892 137.628 49.8122C137.639 49.8351 137.657 49.8753 137.668 49.9326C137.702 50.0702 137.719 50.2021 137.725 50.3168C137.725 50.4373 137.708 50.5634 137.674 50.7011C137.657 50.7756 137.622 50.8559 137.588 50.9477C137.548 51.0394 137.497 51.1312 137.445 51.2287C137.388 51.3204 137.325 51.4179 137.257 51.5154C137.188 51.6129 137.114 51.7104 137.04 51.7964L136.405 50.2308C136.388 50.1677 136.377 50.0989 136.365 50.0244C136.354 49.9556 136.354 49.881 136.354 49.8122V49.7606C136.354 49.7606 136.354 49.7262 136.354 49.7032C136.354 49.6803 136.365 49.6573 136.371 49.6229C136.377 49.5943 136.388 49.5541 136.4 49.5082H135.097C135.149 49.5656 135.194 49.6172 135.24 49.6745C135.286 49.7262 135.331 49.7835 135.366 49.8466C135.406 49.9097 135.446 49.9728 135.48 50.0416C135.514 50.1104 135.554 50.1907 135.588 50.2767L136.44 52.3928C136.154 52.6853 135.914 52.9663 135.708 53.2473C135.508 53.5226 135.343 53.7978 135.223 54.0731C135.103 54.3427 135.017 54.6179 134.971 54.8875C134.926 55.157 134.92 55.4323 134.949 55.7133C134.949 55.7591 134.943 55.805 134.914 55.8394C134.891 55.8796 134.869 55.9082 134.846 55.9369H136.091C136.051 55.8624 136.023 55.8107 135.994 55.7763C135.971 55.7419 135.948 55.7133 135.926 55.6903C135.908 55.6674 135.891 55.6444 135.88 55.6215C135.868 55.5986 135.851 55.5584 135.828 55.5068C135.766 55.2946 135.743 55.0882 135.771 54.8817C135.8 54.6753 135.857 54.4803 135.943 54.291C136.028 54.1018 136.137 53.9183 136.274 53.7462C136.405 53.5742 136.548 53.4079 136.702 53.2473L136.754 53.2072V53.1728ZM146.146 53.7749C146.146 53.7233 146.158 53.6487 146.18 53.5455C146.203 53.4882 146.232 53.4251 146.272 53.362C146.455 53.0982 146.638 52.8287 146.826 52.5649L148.003 50.919V55.071C148.003 55.2315 148.003 55.352 147.986 55.4208C147.963 55.5584 147.912 55.6903 147.843 55.8222H148.997C148.923 55.7133 148.871 55.5814 148.848 55.438C148.831 55.3405 148.826 55.2201 148.826 55.071V50.2136C148.826 50.0588 148.831 49.9384 148.848 49.8581C148.877 49.7032 148.928 49.5771 148.997 49.4681H147.677C147.706 49.5427 147.723 49.6172 147.723 49.6975C147.723 49.8466 147.683 49.9842 147.597 50.1104C147.517 50.2251 147.335 50.4832 147.043 50.8903C146.963 50.9993 146.786 51.2459 146.518 51.6301C146.438 51.7448 146.312 51.9168 146.146 52.152V50.2079C146.146 50.0416 146.152 49.9211 146.163 49.8523C146.192 49.6975 146.238 49.5713 146.312 49.4624H145.164C145.232 49.5885 145.278 49.709 145.295 49.8237C145.312 49.9326 145.318 50.0588 145.318 50.2021V55.0595C145.318 55.2143 145.318 55.329 145.301 55.4036C145.278 55.5412 145.232 55.6731 145.158 55.805H146.306C146.232 55.7018 146.18 55.5756 146.158 55.4265C146.146 55.3462 146.141 55.2258 146.141 55.0652V53.7577L146.146 53.7749Z" fill="#3A2A00"/>
<path d="M0.594005 150.26V128.532L0 127.5H7.75334C11.63 127.5 14.6313 130.595 14.6313 134.284C14.6313 136.785 13.3182 138.943 11.3174 140.068L10.2857 140.662C9.22272 141.287 8.00344 141.631 6.72164 141.631H2.87624V150.26H0.594005ZM2.87624 139.974H7.65954C8.53492 139.974 9.31651 139.787 10.0356 139.349C11.5049 138.442 12.3803 136.754 12.3803 134.878C12.3803 131.752 9.7542 129.188 6.62785 129.188H2.87624V139.974Z" fill="#3A2A00"/>
<path d="M17.7523 150.26V128.532L17.1583 127.5H30.6953L30.0701 129.188H20.0345V137.63H30.3827L29.7574 139.318H20.0345V148.572H31.008L30.3827 150.26H17.7523Z" fill="#3A2A00"/>
<path d="M51.8729 147.478L52.0605 148.666C51.6228 148.916 51.2789 149.135 50.8725 149.353C49.0905 150.354 47.0271 150.76 44.5885 150.76C38.117 150.76 32.896 145.539 32.896 139.193C32.896 134.91 35.2095 131.158 38.6797 129.188L39.7114 128.594C41.4622 127.594 43.463 127 45.5889 127C47.965 127 49.9971 127.5 51.8104 128.376L51.0288 130.439C49.2155 129.345 47.1521 128.688 44.651 128.688C42.9941 128.688 41.3371 129.032 39.9615 129.845C37.054 131.596 35.2407 134.941 35.2407 138.599C35.2407 144.351 39.899 149.072 45.6827 149.072C48.1213 149.072 50.0284 148.509 51.8729 147.478Z" fill="#3A2A00"/>
<path d="M60.6511 150.26V129.22H53.3354L53.992 127.5H70.2177L69.5924 129.22H62.9333V150.26H60.6511Z" fill="#3A2A00"/>
<path d="M87.4317 148.634L86.4 149.197C84.6805 150.166 82.6796 150.76 80.5224 150.76C73.9884 150.76 68.8612 145.57 68.8612 139.193C68.8612 134.91 71.1747 131.221 74.6136 129.157L75.6141 128.594C77.3648 127.563 79.3657 127 81.5229 127C88.0569 127 93.1841 132.19 93.1841 138.599C93.1841 142.882 90.8706 146.633 87.4317 148.634ZM86.1498 147.947C89.0261 146.196 90.8394 142.882 90.8394 139.193C90.8394 133.409 86.2749 128.688 80.5224 128.688C78.8342 128.688 77.2085 129.001 75.8642 129.845C72.9879 131.596 71.2059 134.91 71.2059 138.599C71.2059 144.382 75.7079 149.072 81.5229 149.072C83.2111 149.072 84.8055 148.791 86.1498 147.947Z" fill="#3A2A00"/>
<path d="M96.2467 150.26V128.532L95.6527 127.5H103.406C107.283 127.5 110.284 130.595 110.284 134.284C110.284 136.785 108.971 138.943 106.97 140.068L105.938 140.662C104.875 141.287 103.656 141.631 102.374 141.631H98.529V150.26H96.2467ZM98.529 139.974H103.312C104.188 139.974 104.969 139.787 105.688 139.349C107.158 138.442 108.033 136.754 108.033 134.878C108.033 131.752 105.407 129.188 102.281 129.188H98.529V139.974Z" fill="#3A2A00"/>
<path d="M107.915 150.26L117.606 128.532L117.138 127.5H119.576L129.705 150.26H127.267L123.734 142.35H113.417L110.353 149.228L110.666 150.26H107.915ZM114.136 140.662H122.984L118.576 130.72L114.136 140.662Z" fill="#3A2A00"/>
<path d="M148.918 155.262V150.26H131.723V128.532L131.129 127.5H134.006V148.541H146.323V128.532L145.729 127.5H148.606V148.541H151.107V155.262H148.918Z" fill="#3A2A00"/>
<path d="M153.37 150.26V128.532L152.776 127.5H155.652V146.602L169.658 127.5H171.565V150.26H169.283V131.158L155.245 150.26H153.37Z" fill="#3A2A00"/>
<path d="M173.556 150.26L181.215 140.725C177.933 140.537 175.307 137.848 175.307 134.441C175.307 132.002 176.588 130.064 178.652 128.813C181.372 127.344 183.31 127.563 186.718 127.5H189V150.26H186.718V140.818H183.81L176.401 150.26H173.556ZM182.935 139.224H186.718V129.188H182.06C179.402 129.188 177.589 131.314 177.589 133.909C177.589 136.879 180.027 139.224 182.935 139.224Z" fill="#3A2A00"/>
</svg>
