<svg width="32" height="32" viewBox="0 0 32 32" fill="none" xmlns="http://www.w3.org/2000/svg">
<path d="M29.307 9.05335V14.3867C29.307 18.3067 27.507 20.4134 23.9204 20.72C23.9604 20.4 23.9737 20.0667 23.9737 19.72V14.3867C23.9737 10.1333 21.8404 8.00001 17.587 8.00001H9.05371C8.70704 8.00001 8.37371 8.01335 8.05371 8.05335C8.36038 4.46668 10.4804 2.66667 14.387 2.66667H22.9204C27.1737 2.66667 29.307 4.80002 29.307 9.05335Z" stroke="#CC4700" stroke-width="1.5" stroke-miterlimit="10" stroke-linecap="round" stroke-linejoin="round"/>
<path d="M23.9737 14.3867V19.72C23.9737 20.0667 23.9603 20.4 23.9203 20.72C23.6137 24.32 21.4937 26.1066 17.587 26.1066H17.0537C16.7203 26.1066 16.4003 26.2667 16.2003 26.5333L14.6003 28.6667C13.8937 29.6133 12.747 29.6133 12.0403 28.6667L10.4403 26.5333C10.267 26.3067 9.88033 26.1066 9.587 26.1066H9.05367C4.80034 26.1066 2.66699 25.0533 2.66699 19.72V14.3867C2.66699 10.48 4.467 8.36001 8.05367 8.05334C8.37367 8.01334 8.707 8 9.05367 8H17.587C21.8403 8 23.9737 10.1333 23.9737 14.3867Z" stroke="#434343" stroke-width="1.5" stroke-miterlimit="10" stroke-linecap="round" stroke-linejoin="round"/>
<path d="M17.9937 17.6667H18.0057" stroke="#CC4700" stroke-width="1.5" stroke-linecap="round" stroke-linejoin="round"/>
<path d="M13.3277 17.6667H13.3397" stroke="#CC4700" stroke-width="1.5" stroke-linecap="round" stroke-linejoin="round"/>
<path d="M8.66067 17.6667H8.67267" stroke="#CC4700" stroke-width="1.5" stroke-linecap="round" stroke-linejoin="round"/>
</svg>
