<svg width="54" height="54" viewBox="0 0 54 54" fill="none" xmlns="http://www.w3.org/2000/svg">
<path d="M41.0915 7.52386H44.2932C45.9213 7.52386 47.2456 8.85403 47.2456 10.4894V46.9128C47.2456 48.5481 45.9213 49.8783 44.2932 49.8783H9.698C8.0699 49.8783 6.74561 48.5481 6.74561 46.9128V41.4982M6.74561 41.506V43.6264C6.74561 45.2618 8.0699 46.592 9.698 46.592H37.4614C38.2404 46.592 38.9882 46.279 39.5335 45.7313L46.3809 38.8535C46.934 38.2979 47.2378 37.5546 47.2378 36.7721M28.9937 7.52386H33.3016M16.8959 7.52386H24.9585M12.8607 7.52386H9.70579C8.07769 7.52386 6.7534 8.85403 6.7534 10.4894V35.3167M32.9121 46.592H36.698C37.7886 46.592 38.6766 45.7 38.6766 44.6045V41.1617C38.6766 39.409 40.0944 37.9849 41.8394 37.9849H45.267C46.3575 37.9849 47.2456 37.0929 47.2456 35.9975V32.1947M6.74561 16.9603H47.2456M16.8959 9.48V6.34235C16.8959 5.22343 15.9923 4.31578 14.8783 4.31578C13.7644 4.31578 12.8607 5.22343 12.8607 6.34235V9.48C12.8607 10.5989 13.7644 11.5066 14.8783 11.5066C15.9923 11.5066 16.8959 10.5989 16.8959 9.48ZM28.9937 9.48V6.34235C28.9937 5.22343 28.0901 4.31578 26.9761 4.31578C25.8622 4.31578 24.9585 5.22343 24.9585 6.34235V9.48C24.9585 10.5989 25.8622 11.5066 26.9761 11.5066C28.0901 11.5066 28.9937 10.5989 28.9937 9.48ZM41.0915 9.48V6.34235C41.0915 5.22343 40.1879 4.31578 39.0739 4.31578C37.96 4.31578 37.0563 5.22343 37.0563 6.34235V9.48C37.0563 10.5989 37.96 11.5066 39.0739 11.5066C40.1879 11.5066 41.0915 10.5989 41.0915 9.48Z" stroke="black" stroke-linecap="round" stroke-linejoin="round"/>
<path d="M14.0185 25.8419H11.0029C10.5136 25.8419 10.1206 25.4595 10.1206 24.9834V22.0492C10.1206 21.5732 10.5136 21.1908 11.0029 21.1908H14.0185C14.5078 21.1908 14.9008 21.5732 14.9008 22.0492V24.9834C14.9008 25.4595 14.5078 25.8419 14.0185 25.8419ZM24.5574 24.9834V22.0492C24.5574 21.5732 24.1644 21.1908 23.6751 21.1908H20.6595C20.1702 21.1908 19.7772 21.5732 19.7772 22.0492V24.9834C19.7772 25.4595 20.1702 25.8419 20.6595 25.8419H23.6751C24.1644 25.8419 24.5574 25.4595 24.5574 24.9834ZM34.214 24.9834V22.0492C34.214 21.5732 33.821 21.1908 33.3317 21.1908H30.3161C29.8268 21.1908 29.4338 21.5732 29.4338 22.0492V24.9834C29.4338 25.4595 29.8268 25.8419 30.3161 25.8419H33.3317C33.821 25.8419 34.214 25.4595 34.214 24.9834ZM43.8706 24.9834V22.0492C43.8706 21.5732 43.4776 21.1908 42.9884 21.1908H39.9727C39.4834 21.1908 39.0904 21.5732 39.0904 22.0492V24.9834C39.0904 25.4595 39.4834 25.8419 39.9727 25.8419H42.9884C43.4776 25.8419 43.8706 25.4595 43.8706 24.9834ZM14.9008 33.2087V30.2744C14.9008 29.7984 14.5078 29.416 14.0185 29.416H11.0029C10.5136 29.416 10.1206 29.7984 10.1206 30.2744V33.2087C10.1206 33.6847 10.5136 34.0671 11.0029 34.0671H14.0185C14.5078 34.0671 14.9008 33.6847 14.9008 33.2087ZM24.5574 33.2087V30.2744C24.5574 29.7984 24.1644 29.416 23.6751 29.416H20.6595C20.1702 29.416 19.7772 29.7984 19.7772 30.2744V33.2087C19.7772 33.6847 20.1702 34.0671 20.6595 34.0671H23.6751C24.1644 34.0671 24.5574 33.6847 24.5574 33.2087ZM34.214 33.2087V30.2744C34.214 29.7984 33.821 29.416 33.3317 29.416H30.3161C29.8268 29.416 29.4338 29.7984 29.4338 30.2744V33.2087C29.4338 33.6847 29.8268 34.0671 30.3161 34.0671H33.3317C33.821 34.0671 34.214 33.6847 34.214 33.2087ZM43.8706 33.2087V30.2744C43.8706 29.7984 43.4776 29.416 42.9884 29.416H39.9727C39.4834 29.416 39.0904 29.7984 39.0904 30.2744V33.2087C39.0904 33.6847 39.4834 34.0671 39.9727 34.0671H42.9884C43.4776 34.0671 43.8706 33.6847 43.8706 33.2087ZM14.9008 41.4261V38.4919C14.9008 38.0158 14.5078 37.6334 14.0185 37.6334H11.0029C10.5136 37.6334 10.1206 38.0158 10.1206 38.4919V41.4261C10.1206 41.9021 10.5136 42.2845 11.0029 42.2845H14.0185C14.5078 42.2845 14.9008 41.9021 14.9008 41.4261ZM24.5574 41.4261V38.4919C24.5574 38.0158 24.1644 37.6334 23.6751 37.6334H20.6595C20.1702 37.6334 19.7772 38.0158 19.7772 38.4919V41.4261C19.7772 41.9021 20.1702 42.2845 20.6595 42.2845H23.6751C24.1644 42.2845 24.5574 41.9021 24.5574 41.4261ZM34.214 41.4261V38.4919C34.214 38.0158 33.821 37.6334 33.3317 37.6334H30.3161C29.8268 37.6334 29.4338 38.0158 29.4338 38.4919V41.4261C29.4338 41.9021 29.8268 42.2845 30.3161 42.2845H33.3317C33.821 42.2845 34.214 41.9021 34.214 41.4261Z" stroke="#CC4700" stroke-linecap="round" stroke-linejoin="round"/>
</svg>
