<svg width="54" height="54" viewBox="0 0 54 54" fill="none" xmlns="http://www.w3.org/2000/svg">
<path opacity="0.7" d="M44.8927 41.8895V49.2455M44.8927 49.2455L41.1058 51.8112C40.7868 52.0305 40.9422 52.5257 41.3267 52.5257H44.8927H48.4587C48.8431 52.5257 48.9985 52.0305 48.6796 51.8112L44.8927 49.2455ZM48.8431 29.061L49.6774 36.5795C49.9964 39.4131 47.7553 41.8895 44.8845 41.8895C42.0382 41.8895 39.8135 39.4537 40.0916 36.6363L40.8441 29.061H48.8431Z" stroke="#CC4700" stroke-linecap="round" stroke-linejoin="round"/>
<path opacity="0.7" d="M10.3609 49.1319C11.007 49.5947 11.784 49.8464 12.5774 49.8464C13.2562 49.8464 13.8942 49.6677 14.4422 49.3511M14.8102 43.1074C14.1886 42.6527 13.4116 42.3766 12.5855 42.3766C10.7126 42.3766 9.10947 43.765 8.85592 45.6081M20.8136 46.1115C21.7624 45.4051 22.3185 44.3009 22.3185 43.1236C22.3185 41.0775 20.6173 39.3887 18.5562 39.3887C16.4951 39.3887 14.7939 41.0775 14.7939 43.1236C14.7939 44.1223 15.1946 45.0722 15.9062 45.7786M12.5446 36.141C11.326 39.7947 14.2132 42.7501 14.2132 42.7501C11.9067 39.3725 9.00314 38.5362 7.56364 38.2683C6.12414 38.0003 4.44745 38.9828 4.13665 40.5579C3.89128 41.8164 4.71735 43.0343 5.9851 43.2779C6.99929 43.4727 7.98077 42.8151 8.17706 41.8164M10.1318 36.823L14.4013 35.4753M21.9341 48.7909C21.9341 50.8532 20.2492 52.5257 18.1718 52.5257C16.0943 52.5257 14.4095 50.8532 14.4095 48.7909C14.4095 46.7286 16.0943 45.056 18.1718 45.056C20.2492 45.056 21.9341 46.7286 21.9341 48.7909Z" stroke="#CC4700" stroke-linecap="round" stroke-linejoin="round"/>
<path d="M17.4194 39.5592V27.3803C17.4194 25.318 20.6747 19.2529 22.2696 16.3949C22.8421 15.38 23.1365 14.2352 23.1365 13.0742V3.20112C23.1365 2.44603 23.75 1.83708 24.5106 1.83708H26.4736H28.4365C29.1972 1.83708 29.8106 2.44603 29.8106 3.20112V13.0742C29.8106 14.2352 30.1132 15.38 30.6776 16.3949C32.2806 19.2529 35.5277 25.318 35.5277 27.3803V51.251C35.5277 51.9493 34.9552 52.5176 34.2518 52.5176H26.4736H18.6954M17.4194 29.061H35.5277M22.3023 43.4971L26.449 46.6961H26.4899L35.5277 39.7216M23.1447 11.9618H29.8188M26.4981 32.3656C24.8214 32.3656 23.4637 34.0544 23.4637 36.1329C23.4637 38.2114 24.8214 39.9003 26.4981 39.9003C28.1748 39.9003 29.5325 38.2114 29.5325 36.1329C29.5325 34.0544 28.1748 32.3656 26.4981 32.3656Z" stroke="#434343" stroke-linecap="round" stroke-linejoin="round"/>
</svg>
