<svg width="54" height="54" viewBox="0 0 54 54" fill="none" xmlns="http://www.w3.org/2000/svg">
<path opacity="0.7" d="M14.9929 2.5932L17.0772 13.4932" stroke="#CC4700" stroke-linecap="round" stroke-linejoin="round"/>
<path opacity="0.7" d="M13.907 15.7141C13.907 15.7141 16.0951 13.0994 19.1296 13.0994C22.1642 13.0994 25.9574 17.3129 28.2333 17.3129C30.5092 17.3129 32.5296 16.0764 32.5296 16.0764M20.7507 20.03C19.0577 20.03 17.6842 21.3846 17.6842 23.0543C17.6842 24.7239 19.0577 26.0785 20.7507 26.0785C22.4437 26.0785 23.8172 24.7239 23.8172 23.0543C23.8172 21.3846 22.4437 20.03 20.7507 20.03ZM25.7497 29.347C24.2245 29.347 22.9947 30.5677 22.9947 32.0641C22.9947 33.5605 24.2325 34.7812 25.7497 34.7812C27.267 34.7812 28.5048 33.5605 28.5048 32.0641C28.5048 30.5677 27.267 29.347 25.7497 29.347Z" stroke="#CC4700" stroke-linecap="round" stroke-linejoin="round"/>
<path d="M13.284 24.2041C14.6096 21.3059 14.7533 18.0217 13.6912 15.0289L12.126 10.6028C11.9823 10.1932 12.2857 9.76796 12.725 9.76796H19.6885M11.8306 29.7092C11.8306 35.8995 16.9973 40.9951 23.274 40.9951C29.5508 40.9951 34.7175 35.8995 34.7175 29.7092C34.7175 27.7797 34.2144 25.8816 33.2641 24.2041C31.9385 21.3059 31.7948 18.0217 32.8569 15.0289L34.4221 10.6028C34.5658 10.1932 34.2623 9.76796 33.8231 9.76796H23.274M19.0975 40.2312C21.8925 42.2631 21.7568 44.7046 21.7568 44.7046V48.6345M27.4585 40.2312C24.6636 42.2631 24.7993 44.7046 24.7993 44.7046V48.6345M30.7486 51.2099C30.7486 49.7844 29.5827 48.6345 28.1373 48.6345H18.4188C16.9733 48.6345 15.8074 49.7844 15.8074 51.2099V51.6431H30.7486V51.2099Z" stroke="#434343" stroke-linecap="round" stroke-linejoin="round"/>
<path opacity="0.7" d="M38.2631 17.5885C37.0173 18.3052 35.6039 18.6832 34.1585 18.6832C33.4717 18.6832 32.8089 18.5966 32.17 18.4391M41.1859 14.7139C41.9126 13.4853 42.3039 12.0834 42.3039 10.6579C42.3039 6.25539 38.6305 2.63257 34.1665 2.63257C29.7025 2.63257 26.0291 6.25539 26.0291 10.6579M34.2543 5.13704V6.70431M37.0812 5.82223L36.2906 7.17685M39.1735 7.81478L37.7999 8.59447M38.3909 10.5713H39.98M39.2773 13.3593L37.9038 12.5796M36.4663 14.0681L37.2569 15.4227M32.2499 7.27923L31.4593 5.92461" stroke="#CC4700" stroke-linecap="round" stroke-linejoin="round"/>
</svg>
