<svg width="54" height="54" viewBox="0 0 54 54" fill="none" xmlns="http://www.w3.org/2000/svg">
<path d="M18.8751 32.7288C17.8328 31.0869 17.2783 29.1857 17.2783 27.2447C17.2783 21.6144 21.935 16.9812 27.5938 16.9812C33.2527 16.9812 37.9093 21.6144 37.9093 27.2447C37.9093 32.875 33.2527 37.5082 27.5938 37.5082C25.1887 37.5082 22.857 36.6706 21.0063 35.1417M16.1826 41.3903C19.4162 43.9761 23.4449 45.3853 27.6005 45.3853C33.4264 45.3853 38.9048 42.6134 42.3389 37.927M41.163 15.1266C37.7089 11.2977 32.7716 9.10406 27.5938 9.10406C23.7322 9.10406 19.9708 10.3272 16.8507 12.5873" stroke="#434343" stroke-width="1.25" stroke-linecap="round" stroke-linejoin="round"/>
<path opacity="0.7" d="M7.80303 36.1735L8.51337 33.12V22.1794C7.16034 22.1794 6.05762 21.0702 6.05762 19.6941V11.0402M14.2908 11.0402V19.6941C14.2908 21.0634 13.1949 22.1794 11.8351 22.1794V33.12L13.3437 39.6379C13.824 41.7123 12.268 43.6978 10.1708 43.6978C8.06687 43.6978 6.51088 41.7123 6.99797 39.6379M8.8178 11.0402V17.291M11.5306 11.0402V17.291M43.1713 22.775C42.0753 16.1819 44.7002 11.6974 46.5741 9.44494C47.1424 8.7603 48.2451 9.17793 48.2451 10.068V43.6841H45.6947C44.9978 43.6841 44.4566 43.0679 44.5378 42.3696L45.9179 30.5321C45.0114 28.8204 44.3416 27.1978 43.8681 25.6779" stroke="#CC4700" stroke-linecap="round" stroke-linejoin="round"/>
</svg>
