<svg width="54" height="54" viewBox="0 0 54 54" fill="none" xmlns="http://www.w3.org/2000/svg">
<path d="M24.0875 44.3869C22.6837 45.4167 21.1689 46.4148 19.5192 47.3734M26.4589 42.5411C34.6517 35.7442 38.0382 28.4561 38.863 26.4836C35.1672 22.4514 31.6061 30.9594 31.6061 30.9594C31.6061 30.9594 26.4747 36.2274 24.1747 35.9898C21.8747 35.7521 21.1292 32.4329 21.1927 28.7096C21.2561 24.9864 16.9099 25.3587 16.9099 25.3587C16.9099 25.3587 17.3223 30.2465 16.2913 32.5755C15.2602 34.9045 13.4123 37.3285 13.4123 41.5033M34.8817 26.1746C30.7337 22.9584 27.7675 30.7931 27.7675 30.7931L22.9851 35.4986M12.1354 43.6343L13.0158 44.5136M9.60541 44.5374L16.3071 51.2313C16.672 51.5957 17.2509 51.5957 17.6158 51.2313L19.7413 49.1083C20.1061 48.7439 20.1061 48.1656 19.7413 47.8012L13.0396 41.1072C12.6747 40.7428 12.0958 40.7428 11.7309 41.1072L9.60541 43.2303C9.24058 43.5947 9.24058 44.173 9.60541 44.5374Z" stroke="black" stroke-width="1.25" stroke-linecap="round" stroke-linejoin="round"/>
<path d="M15.8099 10.1217C18.9747 7.72365 22.8957 6.32088 27.0661 6.32088C35.9059 6.32088 43.5997 12.6137 45.4004 21.3203M12.4969 13.3426C10.6495 15.6387 9.31651 18.3894 8.70849 21.43M33.3257 21.43H7.90558C6.82985 21.43 5.95679 22.3077 5.95679 23.3892C5.95679 24.4706 6.82985 25.3484 7.90558 25.3484H46.1955C47.2712 25.3484 48.1443 24.4706 48.1443 23.3892C48.1443 22.3077 47.2712 21.43 46.1955 21.43H36.7555M29.0461 6.43059V4.5733C29.0461 3.46833 28.1497 2.56711 27.0505 2.56711C25.9514 2.56711 25.055 3.46833 25.055 4.5733V6.43059" stroke="#CC4700" stroke-width="1.25" stroke-linecap="round" stroke-linejoin="round"/>
</svg>
