<svg width="54" height="54" viewBox="0 0 54 54" fill="none" xmlns="http://www.w3.org/2000/svg">
<path d="M41.0915 7.52386H44.2932C45.9213 7.52386 47.2456 8.85403 47.2456 10.4894V46.9128C47.2456 48.5481 45.9213 49.8783 44.2932 49.8783H9.698C8.0699 49.8783 6.74561 48.5481 6.74561 46.9128V41.4982M6.74561 41.506V43.6264C6.74561 45.2618 8.0699 46.592 9.698 46.592H37.4614C38.2404 46.592 38.9882 46.279 39.5335 45.7313L46.3809 38.8535C46.934 38.2979 47.2378 37.5546 47.2378 36.7721M28.9937 7.52386H33.3016M16.8959 7.52386H24.9585M12.8607 7.52386H9.70579C8.07769 7.52386 6.7534 8.85403 6.7534 10.4894V35.3167M32.9121 46.592H36.698C37.7886 46.592 38.6766 45.7 38.6766 44.6045V41.1617C38.6766 39.409 40.0944 37.9849 41.8394 37.9849H45.267C46.3575 37.9849 47.2456 37.0929 47.2456 35.9975V32.1947M6.74561 16.9603H47.2456M16.8959 9.48V6.34235C16.8959 5.22343 15.9923 4.31578 14.8783 4.31578C13.7644 4.31578 12.8607 5.22343 12.8607 6.34235V9.48C12.8607 10.5989 13.7644 11.5066 14.8783 11.5066C15.9923 11.5066 16.8959 10.5989 16.8959 9.48ZM28.9937 9.48V6.34235C28.9937 5.22343 28.0901 4.31578 26.9761 4.31578C25.8622 4.31578 24.9585 5.22343 24.9585 6.34235V9.48C24.9585 10.5989 25.8622 11.5066 26.9761 11.5066C28.0901 11.5066 28.9937 10.5989 28.9937 9.48ZM41.0915 9.48V6.34235C41.0915 5.22343 40.1879 4.31578 39.0739 4.31578C37.96 4.31578 37.0563 5.22343 37.0563 6.34235V9.48C37.0563 10.5989 37.96 11.5066 39.0739 11.5066C40.1879 11.5066 41.0915 10.5989 41.0915 9.48Z" stroke="#434343" stroke-linecap="round" stroke-linejoin="round"/>
<path opacity="0.7" d="M18.9763 33.4439C19.6578 34.4407 20.582 35.5395 21.6238 36.5834C22.6655 37.6273 23.8247 38.6084 24.843 39.2913M17.6291 37.2427C18.1069 37.8235 18.6474 38.4122 19.2191 38.9852C19.7909 39.5581 20.3784 40.0997 20.958 40.5785M20.723 27.7142L16.0312 42.1875L30.4746 37.486M28.6888 29.5038L32.6678 25.5166M25.2816 26.0346C25.963 25.2262 26.339 24.2137 26.3547 23.1541C26.3703 22.0945 26.0179 21.0741 25.3599 20.25M37.9235 32.8317C37.1011 32.1724 36.075 31.8192 35.0254 31.8349C33.9758 31.8506 32.9576 32.2273 32.1508 32.9102M26.8481 31.3404C29.5426 34.0404 31.1639 36.7875 30.4668 37.486C29.7697 38.1846 27.0283 36.5599 24.3339 33.8599C21.6394 31.1599 20.0181 28.4128 20.7152 27.7142C21.4123 27.0157 24.1537 28.6404 26.8481 31.3404ZM21.334 23.2326C21.287 23.2797 21.287 23.3503 21.334 23.3974C21.3809 23.4445 21.4514 23.4445 21.4984 23.3974C21.5454 23.3503 21.5454 23.2797 21.4984 23.2326C21.4514 23.1855 21.3809 23.1855 21.334 23.2326ZM30.0595 21.7334C30.0125 21.7805 30.0125 21.8512 30.0595 21.8983C30.1065 21.9453 30.177 21.9453 30.224 21.8983C30.271 21.8512 30.271 21.7805 30.224 21.7334C30.177 21.6863 30.1065 21.6863 30.0595 21.7334ZM38.6128 27.1727C38.5658 27.2198 38.5658 27.2904 38.6128 27.3375C38.6598 27.3846 38.7303 27.3846 38.7773 27.3375C38.8243 27.2904 38.8243 27.2198 38.7773 27.1727C38.7303 27.1256 38.6598 27.1256 38.6128 27.1727ZM34.7591 35.1C34.7121 35.1471 34.7121 35.2177 34.7591 35.2648C34.8061 35.3119 34.8766 35.3119 34.9236 35.2648C34.9706 35.2177 34.9706 35.1471 34.9236 35.1C34.8766 35.0529 34.8061 35.0529 34.7591 35.1Z" stroke="#CC4700" stroke-linecap="round" stroke-linejoin="round"/>
</svg>
