<svg width="54" height="54" viewBox="0 0 54 54" fill="none" xmlns="http://www.w3.org/2000/svg">
<path d="M41.0915 7.52386H44.2932C45.9213 7.52386 47.2456 8.85403 47.2456 10.4894V46.9128C47.2456 48.5481 45.9213 49.8783 44.2932 49.8783H9.698C8.0699 49.8783 6.74561 48.5481 6.74561 46.9128V41.4982M6.74561 41.506V43.6264C6.74561 45.2618 8.0699 46.592 9.698 46.592H37.4614C38.2404 46.592 38.9882 46.279 39.5335 45.7313L46.3809 38.8535C46.934 38.2979 47.2378 37.5546 47.2378 36.7721M28.9937 7.52386H33.3016M16.8959 7.52386H24.9585M12.8607 7.52386H9.70579C8.07769 7.52386 6.7534 8.85403 6.7534 10.4894V35.3167M32.9121 46.592H36.698C37.7886 46.592 38.6766 45.7 38.6766 44.6045V41.1617C38.6766 39.409 40.0944 37.9849 41.8394 37.9849H45.267C46.3575 37.9849 47.2456 37.0929 47.2456 35.9975V32.1947M6.74561 16.9603H47.2456M16.8959 9.48V6.34235C16.8959 5.22343 15.9923 4.31578 14.8783 4.31578C13.7644 4.31578 12.8607 5.22343 12.8607 6.34235V9.48C12.8607 10.5989 13.7644 11.5066 14.8783 11.5066C15.9923 11.5066 16.8959 10.5989 16.8959 9.48ZM28.9937 9.48V6.34235C28.9937 5.22343 28.0901 4.31578 26.9761 4.31578C25.8622 4.31578 24.9585 5.22343 24.9585 6.34235V9.48C24.9585 10.5989 25.8622 11.5066 26.9761 11.5066C28.0901 11.5066 28.9937 10.5989 28.9937 9.48ZM41.0915 9.48V6.34235C41.0915 5.22343 40.1879 4.31578 39.0739 4.31578C37.96 4.31578 37.0563 5.22343 37.0563 6.34235V9.48C37.0563 10.5989 37.96 11.5066 39.0739 11.5066C40.1879 11.5066 41.0915 10.5989 41.0915 9.48Z" stroke="#434343" stroke-linecap="round" stroke-linejoin="round"/>
<path opacity="0.7" d="M10.1206 31.2655L12.1331 33.2321L15.1839 30.251M19.7281 39.483L21.7406 41.4495L24.7914 38.4685M29.3436 23.0403L31.3561 25.0069L34.4069 22.0258M15.0242 25.8419H10.2644V21.1908H15.0242V25.8419ZM24.6397 25.8419V21.1908H19.8798V25.8419H24.6397ZM43.8706 25.8419V21.1908H39.1108V25.8419H43.8706ZM24.6397 34.0671V29.416H19.8798V34.0671H24.6397ZM34.2551 34.0671V29.416H29.4953V34.0671H34.2551ZM43.8706 34.0671V29.416H39.1108V34.0671H43.8706ZM15.0242 42.2845V37.6334H10.2644V42.2845H15.0242ZM34.2551 42.2845V37.6334H29.4953V42.2845H34.2551Z" stroke="#CC4700" stroke-linecap="round" stroke-linejoin="round"/>
</svg>
