<svg width="32" height="32" viewBox="0 0 32 32" fill="none" xmlns="http://www.w3.org/2000/svg">
<path fill-rule="evenodd" clip-rule="evenodd" d="M16 2.66699C19.5354 2.66699 22.9288 4.07268 25.4268 6.57227C27.9267 9.07185 29.333 12.4652 29.333 16C29.333 19.5348 27.9267 22.9282 25.4268 25.4277C22.9288 27.9273 19.5354 29.333 16 29.333C12.4646 29.333 9.07116 27.9273 6.57324 25.4277C4.07326 22.9282 2.66699 19.5348 2.66699 16C2.66768 12.4637 4.07277 9.07284 6.57324 6.57227C9.07116 4.07268 12.4646 2.66699 16 2.66699ZM21.4512 10.6924C20.9491 10.7014 20.1798 10.9696 16.4756 12.5098C15.1797 13.0492 12.5881 14.1653 8.70117 15.8584C8.06992 16.1094 7.73815 16.3557 7.70898 16.5957C7.65103 17.0564 8.31547 17.2004 9.14844 17.4717C9.82963 17.6929 10.7466 17.9517 11.2217 17.9619C11.655 17.9713 12.1367 17.7932 12.668 17.4277C16.3012 14.9764 18.1742 13.7366 18.293 13.71C18.3762 13.6912 18.4904 13.6682 18.5674 13.7373C18.6464 13.8064 18.6382 13.9372 18.6299 13.9727C18.5653 14.2541 15.1529 17.3576 14.957 17.5615C14.2071 18.3406 13.3534 18.8171 14.6699 19.6846C15.8094 20.4352 16.4717 20.9143 17.6445 21.6836C18.3944 22.175 18.982 22.7576 19.7568 22.6865C20.1131 22.6538 20.4825 22.3193 20.668 21.3203C21.1096 18.959 21.9776 13.843 22.1777 11.7344C22.1965 11.5498 22.1739 11.3127 22.1572 11.209C22.1385 11.1051 22.101 10.957 21.9678 10.8477C21.8075 10.7181 21.5617 10.6907 21.4512 10.6924Z" fill="url(#paint0_linear_59_3048)"/>
<defs>
<linearGradient id="paint0_linear_59_3048" x1="16" y1="2.66699" x2="16" y2="29.333" gradientUnits="userSpaceOnUse">
<stop stop-color="#2AABEE"/>
<stop offset="1" stop-color="#229ED9"/>
</linearGradient>
</defs>
</svg>
