<svg width="24" height="24" viewBox="0 0 24 24" fill="none" xmlns="http://www.w3.org/2000/svg">
<path fill-rule="evenodd" clip-rule="evenodd" d="M12.5 0C17.9299 0 20.6501 -0.000195339 22.3301 1.67969C24.0001 3.35969 24 6.08047 24 11.4805V12.5C24 17.92 24.0001 20.6403 22.3301 22.3203C20.6501 24.0002 17.9399 24 12.5 24H11.5C6.08 24 3.35969 24.0003 1.67969 22.3203C-0.000312448 20.6403 0 17.9195 0 12.5195V11.5C0 6.08 -7.80821e-05 3.35969 1.66992 1.67969C3.34993 -0.00019528 6.06013 0 11.5 0H12.5ZM4.28613 7.71387C4.41152 13.603 7.4182 17.1426 12.6895 17.1426H12.9883V13.7725C13.9179 13.8872 14.7923 14.2689 15.502 14.8682C16.2115 15.4675 16.725 16.2588 16.9775 17.1426H19.7148C19.4335 16.1251 18.9345 15.1773 18.252 14.3623C17.5693 13.5473 16.7178 12.8832 15.7539 12.4141C16.6175 11.9007 17.3633 11.2179 17.9453 10.4092C18.5273 9.60056 18.9324 8.68289 19.1357 7.71387H16.6494C16.1097 9.58225 14.5107 11.2807 12.9883 11.4414V7.71387H10.502V14.2451C8.9601 13.8676 7.01358 12.0362 6.92676 7.71387H4.28613Z" fill="#0077FF"/>
</svg>
