<svg width="32" height="32" viewBox="0 0 32 32" fill="none" xmlns="http://www.w3.org/2000/svg">
<path fill-rule="evenodd" clip-rule="evenodd" d="M16.5 4C21.9299 4 24.6501 3.9998 26.3301 5.67969C28.0001 7.35969 28 10.0805 28 15.4805V16.5C28 21.92 28.0001 24.6403 26.3301 26.3203C24.6501 28.0002 21.9399 28 16.5 28H15.5C10.08 28 7.35969 28.0003 5.67969 26.3203C3.99969 24.6403 4 21.9195 4 16.5195V15.5C4 10.08 3.99992 7.35969 5.66992 5.67969C7.34993 3.9998 10.0601 4 15.5 4H16.5ZM8.28613 11.7139C8.41152 17.603 11.4182 21.1426 16.6895 21.1426H16.9883V17.7725C17.9179 17.8872 18.7923 18.2689 19.502 18.8682C20.2115 19.4675 20.725 20.2588 20.9775 21.1426H23.7148C23.4335 20.1251 22.9345 19.1773 22.252 18.3623C21.5693 17.5473 20.7178 16.8832 19.7539 16.4141C20.6175 15.9007 21.3633 15.2179 21.9453 14.4092C22.5273 13.6006 22.9324 12.6829 23.1357 11.7139H20.6494C20.1097 13.5823 18.5107 15.2807 16.9883 15.4414V11.7139H14.502V18.2451C12.9601 17.8676 11.0136 16.0362 10.9268 11.7139H8.28613Z" fill="#0077FF"/>
</svg>
