<svg width="32" height="32" viewBox="0 0 32 32" fill="none" xmlns="http://www.w3.org/2000/svg">
<path fill-rule="evenodd" clip-rule="evenodd" d="M24.9732 7.01463C22.5921 4.64189 19.4252 3.33453 16.0509 3.33333C9.09798 3.33333 3.43932 8.96423 3.4369 15.8856C3.43569 18.0982 4.01692 20.2579 5.12071 22.1612L3.33105 28.6667L10.0179 26.9211C11.8602 27.9215 13.9347 28.4482 16.0455 28.4488H16.0509C23.0027 28.4488 28.662 22.8173 28.6644 15.8959C28.6656 12.5414 27.3549 9.38798 24.9732 7.01523V7.01463ZM16.0509 26.3288H16.0467C14.1657 26.3283 12.3204 25.825 10.7104 24.8746L10.3276 24.6483L6.35937 25.6842L7.41841 21.8337L7.16922 21.4389C6.11986 19.7776 5.56524 17.8575 5.56645 15.8863C5.56887 10.1338 10.2719 5.45327 16.0552 5.45327C18.8555 5.45447 21.4877 6.54093 23.4672 8.5134C25.4468 10.4853 26.536 13.1072 26.5348 15.8947C26.5324 21.6478 21.8294 26.3283 16.0509 26.3283V26.3288ZM21.8015 18.5148C21.4864 18.3577 19.9369 17.5993 19.6478 17.4946C19.3587 17.3898 19.1488 17.3375 18.9389 17.6516C18.7291 17.9659 18.1249 18.6725 17.941 18.8814C17.7571 19.0908 17.5732 19.1167 17.2581 18.9596C16.9431 18.8025 15.9276 18.4714 14.7234 17.403C13.7865 16.5712 13.1538 15.5444 12.97 15.2301C12.7862 14.916 12.9507 14.7462 13.1079 14.5903C13.2494 14.4495 13.423 14.2238 13.5809 14.0408C13.7388 13.8578 13.7908 13.7266 13.896 13.5177C14.0012 13.3082 13.9486 13.1253 13.87 12.9681C13.7913 12.8111 13.1612 11.2671 12.898 10.6393C12.6422 10.0278 12.3822 10.1109 12.1892 10.1006C12.0053 10.0916 11.7955 10.0898 11.585 10.0898C11.3745 10.0898 11.0334 10.1681 10.7443 10.4823C10.4552 10.7964 9.6411 11.5554 9.6411 13.0988C9.6411 14.6421 10.7703 16.1342 10.9282 16.3437C11.086 16.5532 13.1508 19.721 16.3122 21.0802C17.064 21.4034 17.6513 21.5966 18.1091 21.7411C18.864 21.98 19.551 21.9463 20.0941 21.8657C20.6996 21.7754 21.9588 21.1066 22.2213 20.3741C22.4838 19.6416 22.4838 19.0132 22.4052 18.8825C22.3266 18.7519 22.1161 18.6731 21.801 18.516L21.8015 18.5148Z" fill="#25D366"/>
</svg>
